<svg width="60" height="60" viewBox="0 0 60 60" fill="none" xmlns="http://www.w3.org/2000/svg">
<path d="M30 5C20.335 5 12.5 12.8362 12.5 22.5C12.5 32.165 30 55 30 55C30 55 47.5 32.165 47.5 22.5C47.5 12.8362 39.665 5 30 5ZM30 31.25C27.6794 31.25 25.4538 30.3281 23.8128 28.6872C22.1719 27.0462 21.25 24.8206 21.25 22.5C21.25 20.1794 22.1719 17.9538 23.8128 16.3128C25.4538 14.6719 27.6794 13.75 30 13.75C32.3206 13.75 34.5462 14.6719 36.1872 16.3128C37.8281 17.9538 38.75 20.1794 38.75 22.5C38.75 24.8206 37.8281 27.0462 36.1872 28.6872C34.5462 30.3281 32.3206 31.25 30 31.25Z" fill="#196EEE"/>
</svg>
